# xmcd CD database file
#
# Track frame offsets:
#	150
#	21712
#	43380
#	66460
#	84830
#	105867
#	127212
#	148247
#
# Disc length: 2272 seconds
#
# Revision: 0
# Processed by: cddbd v1.5.2PL0 Copyright (c) Steve Scherf et al.
# Submitted via: CDex 1.79
#
DISCID=7908de08
DTITLE=Marianella - De Cuerpo Entero
DYEAR=1991
DGENRE=Salsa
TTITLE0=Debe Volar El Amor
TTITLE1=Ay, Amor (El Que Juega Con Fuego)
TTITLE2=Yo Siento
TTITLE3=Que Te Has Craido Tu
TTITLE4=Contigo No Vuelvo A Usar El Corazon
TTITLE5=Milagro
TTITLE6=Anque Lo Dudes
TTITLE7=Me Llego El Amor
EXTD=YEAR: 1991
EXTT0=
EXTT1=
EXTT2=
EXTT3=
EXTT4=
EXTT5=
EXTT6=
EXTT7=
PLAYORDER=
